<svg width="180" height="180" viewBox="0 0 180 180" fill="none" xmlns="http://www.w3.org/2000/svg">
<g filter="url(#filter0_d)">
<circle cx="90" cy="80" r="50" fill="white"/>
</g>
<path d="M110 101.323H70V61H110V101.323ZM71.6129 99.7097H108.387V62.6129H71.6129V99.7097Z" fill="black"/>
<path d="M100.161 80.1939H79.7578V64.5487H100.161V80.1939ZM81.3707 78.581H98.5481V66.1616H81.3707V78.581Z" fill="black"/>
<path d="M100.161 97.7744H79.7578V82.1292H100.161V97.7744ZM81.3707 96.1615H98.5481V83.7421H81.3707V96.1615Z" fill="black"/>
<path d="M76.2098 64.0648H74.5969V65.839H76.2098V64.0648Z" fill="black"/>
<path d="M76.2098 87.4519V91.968H74.5969V87.4519H76.2098ZM76.2098 78.339V82.8551H74.5969V78.339H76.2098ZM76.2098 69.3067V73.8228H74.5969V69.3067" fill="black"/>
<path d="M76.2098 96.4839H74.5969V98.3387H76.2098V96.4839Z" fill="black"/>
<path d="M105.322 64.0648H103.71V65.839H105.322V64.0648Z" fill="black"/>
<path d="M105.322 87.4519V91.968H103.71V87.4519H105.322ZM105.322 78.339V82.8551H103.71V78.339H105.322ZM105.322 69.3067V73.8228H103.71V69.3067" fill="black"/>
<path d="M105.322 96.4839H103.71V98.3387H105.322V96.4839Z" fill="black"/>
<defs>
<filter id="filter0_d" x="0" y="0" width="180" height="180" filterUnits="userSpaceOnUse" color-interpolation-filters="sRGB">
<feFlood flood-opacity="0" result="BackgroundImageFix"/>
<feColorMatrix in="SourceAlpha" type="matrix" values="0 0 0 0 0 0 0 0 0 0 0 0 0 0 0 0 0 0 127 0" result="hardAlpha"/>
<feOffset dy="10"/>
<feGaussianBlur stdDeviation="20"/>
<feComposite in2="hardAlpha" operator="out"/>
<feColorMatrix type="matrix" values="0 0 0 0 0 0 0 0 0 0 0 0 0 0 0 0 0 0 0.05 0"/>
<feBlend mode="normal" in2="BackgroundImageFix" result="effect1_dropShadow"/>
<feBlend mode="normal" in="SourceGraphic" in2="effect1_dropShadow" result="shape"/>
</filter>
</defs>
</svg>
