<svg width="180" height="180" viewBox="0 0 180 180" fill="none" xmlns="http://www.w3.org/2000/svg">
<g filter="url(#filter0_d)">
<circle cx="90" cy="80" r="50" fill="white"/>
</g>
<path d="M69.9014 70.6369C69.8704 70.6204 69.8331 70.6214 69.803 70.6394C69.7729 70.6575 69.7545 70.6901 69.7545 70.7252V82.0002C69.7545 82.0372 69.7749 82.0712 69.8076 82.0885L79.9825 87.4969C80.0135 87.5134 80.0508 87.5124 80.0809 87.4943C80.111 87.4763 80.1294 87.4437 80.1294 87.4086V76.1335C80.1294 76.0966 80.109 76.0626 80.0763 76.0452L69.9014 70.6369ZM70.6876 81.5734V72.0832L79.2878 76.652V86.1422L70.6876 81.5734Z" fill="black" stroke="black" stroke-width="0.2" stroke-linejoin="round"/>
<path d="M90.3964 70.7252C90.3964 70.6901 90.378 70.6575 90.3479 70.6394C90.3178 70.6214 90.2805 70.6204 90.2495 70.6369L80.0746 76.0452C80.0419 76.0626 80.0215 76.0966 80.0215 76.1335V87.4086C80.0215 87.4437 80.0399 87.4763 80.07 87.4943C80.1001 87.5124 80.1374 87.5134 80.1684 87.4969L90.3433 82.0885C90.376 82.0712 90.3964 82.0372 90.3964 82.0002V70.7252ZM80.8631 76.652L89.4633 72.0832V81.5734L80.8631 86.1422V76.652Z" fill="black" stroke="black" stroke-width="0.2" stroke-linejoin="round"/>
<path d="M80.0763 65.32C80.047 65.3044 80.0118 65.3044 79.9825 65.32L69.8076 70.7284C69.7749 70.7458 69.7545 70.7797 69.7545 70.8167C69.7545 70.8537 69.7749 70.8876 69.8076 70.905L79.9825 76.3133C80.0118 76.3289 80.047 76.3289 80.0763 76.3133L90.2515 70.905C90.2841 70.8876 90.3045 70.8537 90.3045 70.8167C90.3045 70.7797 90.2841 70.7458 90.2515 70.7284L80.0763 65.32ZM71.5357 70.7249L80.0294 66.2546L88.5231 70.7249L80.0294 75.1953L71.5357 70.7249Z" fill="black" stroke="black" stroke-width="0.2" stroke-linejoin="round"/>
<path d="M90.3437 70.6369C90.3127 70.6204 90.2753 70.6214 90.2452 70.6394C90.2151 70.6575 90.1967 70.6901 90.1967 70.7252V82.0002C90.1967 82.0372 90.2172 82.0712 90.2498 82.0886L100.425 87.4969C100.456 87.5134 100.493 87.5124 100.523 87.4943C100.553 87.4763 100.572 87.4437 100.572 87.4086V76.1335C100.572 76.0966 100.551 76.0626 100.519 76.0452L90.3437 70.6369ZM91.0386 81.5734V72.0832L99.6385 76.652V86.1422L91.0386 81.5734Z" fill="black" stroke="black" stroke-width="0.2" stroke-linejoin="round"/>
<path d="M110.747 70.7252C110.747 70.6901 110.729 70.6575 110.699 70.6394C110.669 70.6214 110.631 70.6204 110.6 70.6369L100.425 76.0452C100.392 76.0626 100.372 76.0966 100.372 76.1335V87.4086C100.372 87.4437 100.39 87.4763 100.42 87.4943C100.451 87.5124 100.488 87.5134 100.519 87.4969L110.694 82.0886C110.727 82.0712 110.747 82.0372 110.747 82.0002V70.7252ZM101.305 76.652L109.905 72.0832V81.5734L101.305 86.1422V76.652Z" fill="black" stroke="black" stroke-width="0.2" stroke-linejoin="round"/>
<path d="M100.519 65.32C100.489 65.3044 100.454 65.3044 100.425 65.32L90.2498 70.7284C90.2172 70.7458 90.1967 70.7797 90.1967 70.8167C90.1967 70.8537 90.2172 70.8876 90.2498 70.905L100.425 76.3133C100.454 76.3289 100.489 76.3289 100.519 76.3133L110.694 70.905C110.727 70.8876 110.747 70.8537 110.747 70.8167C110.747 70.7797 110.727 70.7458 110.694 70.7284L100.519 65.32ZM91.9782 70.7249L100.472 66.2546L108.966 70.7249L100.472 75.1953L91.9782 70.7249Z" fill="black" stroke="black" stroke-width="0.2" stroke-linejoin="round"/>
<path d="M69.9014 81.9116C69.8704 81.8952 69.8331 81.8961 69.803 81.9142C69.7729 81.9323 69.7545 81.9648 69.7545 81.9999V93.275C69.7545 93.312 69.7749 93.346 69.8076 93.3633L79.9825 98.7716C80.0135 98.7881 80.0508 98.7871 80.0809 98.769C80.111 98.7509 80.1294 98.7184 80.1294 98.6833V87.4083C80.1294 87.3713 80.109 87.3374 80.0763 87.32L69.9014 81.9116ZM70.6876 92.7566V83.2663L79.2878 87.8351V97.3253L70.6876 92.7566Z" fill="black" stroke="black" stroke-width="0.2" stroke-linejoin="round"/>
<path d="M110.747 81.9999C110.747 81.9648 110.729 81.9323 110.699 81.9142C110.669 81.8961 110.631 81.8952 110.6 81.9116L100.425 87.32C100.392 87.3374 100.372 87.3713 100.372 87.4083V98.6833C100.372 98.7184 100.39 98.7509 100.42 98.769C100.451 98.7871 100.488 98.7881 100.519 98.7716L110.694 93.3633C110.727 93.346 110.747 93.312 110.747 93.275V81.9999ZM101.305 87.8351L109.905 83.2663V92.7566L101.305 97.3253V87.8351Z" fill="black" stroke="black" stroke-width="0.2" stroke-linejoin="round"/>
<path d="M90.3433 59.9117C90.314 59.8961 90.2788 59.8961 90.2495 59.9117L80.0746 65.3201C80.0419 65.3374 80.0215 65.3714 80.0215 65.4084C80.0215 65.4454 80.0419 65.4793 80.0746 65.4967L90.2495 70.9051C90.2788 70.9207 90.314 70.9207 90.3433 70.9051L100.518 65.4967C100.551 65.4793 100.572 65.4454 100.572 65.4084C100.572 65.3714 100.551 65.3374 100.518 65.3201L90.3433 59.9117ZM81.8028 65.3167L90.2964 60.8464L98.7901 65.3167L90.2964 69.7871L81.8028 65.3167Z" fill="black" stroke="black" stroke-width="0.2" stroke-linejoin="round"/>
<path d="M80.0767 87.2282C80.0457 87.2118 80.0083 87.2127 79.9782 87.2308C79.9481 87.2489 79.9297 87.2814 79.9297 87.3165V98.5915C79.9297 98.6285 79.9501 98.6624 79.9828 98.6798L90.1579 104.088C90.1889 104.105 90.2263 104.104 90.2564 104.086C90.2865 104.068 90.3049 104.035 90.3049 104V92.7248C90.3049 92.6878 90.2844 92.6538 90.2518 92.6365L80.0767 87.2282ZM80.8631 98.1647V88.6745L89.4632 93.2432V102.734L80.8631 98.1647Z" fill="black" stroke="black" stroke-width="0.2" stroke-linejoin="round"/>
<path d="M100.572 87.3165C100.572 87.2814 100.553 87.2489 100.523 87.2308C100.493 87.2127 100.456 87.2118 100.425 87.2282L90.2498 92.6365C90.2172 92.6538 90.1967 92.6878 90.1967 92.7248V104C90.1967 104.035 90.2151 104.068 90.2452 104.086C90.2753 104.104 90.3127 104.105 90.3437 104.088L100.519 98.6798C100.551 98.6624 100.572 98.6285 100.572 98.5915V87.3165ZM91.0386 93.2432L99.6385 88.6745V98.1647L91.0386 102.734V93.2432Z" fill="black" stroke="black" stroke-width="0.2" stroke-linejoin="round"/>
<path d="M90.3433 81.9116C90.314 81.896 90.2788 81.896 90.2495 81.9116L80.0746 87.32C80.0419 87.3374 80.0215 87.3713 80.0215 87.4083C80.0215 87.4453 80.0419 87.4793 80.0746 87.4966L90.2495 92.905C90.2788 92.9206 90.314 92.9206 90.3433 92.905L100.518 87.4966C100.551 87.4793 100.572 87.4453 100.572 87.4083C100.572 87.3713 100.551 87.3374 100.518 87.32L90.3433 81.9116ZM81.8028 87.3167L90.2964 82.8463L98.7901 87.3167L90.2964 91.787L81.8028 87.3167Z" fill="black" stroke="black" stroke-width="0.2" stroke-linejoin="round"/>
<defs>
<filter id="filter0_d" x="0" y="0" width="180" height="180" filterUnits="userSpaceOnUse" color-interpolation-filters="sRGB">
<feFlood flood-opacity="0" result="BackgroundImageFix"/>
<feColorMatrix in="SourceAlpha" type="matrix" values="0 0 0 0 0 0 0 0 0 0 0 0 0 0 0 0 0 0 127 0" result="hardAlpha"/>
<feOffset dy="10"/>
<feGaussianBlur stdDeviation="20"/>
<feComposite in2="hardAlpha" operator="out"/>
<feColorMatrix type="matrix" values="0 0 0 0 0 0 0 0 0 0 0 0 0 0 0 0 0 0 0.05 0"/>
<feBlend mode="normal" in2="BackgroundImageFix" result="effect1_dropShadow"/>
<feBlend mode="normal" in="SourceGraphic" in2="effect1_dropShadow" result="shape"/>
</filter>
</defs>
</svg>
