<svg width="45" height="19" viewBox="0 0 45 19" fill="none" xmlns="http://www.w3.org/2000/svg">
<path d="M41.3056 3.63816C39.0723 2.58644 36.8578 2.83503 34.9812 4.52734C34.1179 5.30179 33.3015 6.15272 32.4946 6.9941C31.0965 5.54081 29.7077 4.07797 28.2721 2.67249C24.8284 -0.664332 19.2828 -0.635648 15.8673 2.72029C14.441 4.12577 13.0523 5.57906 11.6541 7.02278C10.941 6.27702 10.2279 5.54081 9.48658 4.84286C7.73189 3.20791 5.64878 2.89239 3.50938 3.83894C1.24799 4.84286 0.0938336 6.72639 0 9.47998C0.14075 11.6599 1.13539 13.4956 3.26541 14.5474C5.46112 15.6373 7.57237 15.3409 9.39274 13.7251C10.1809 13.0271 10.9128 12.2623 11.6354 11.4974C12.9866 12.8933 14.3284 14.3083 15.7077 15.6851C17.4812 17.4539 19.63 18.3527 22.1166 18.3144C24.5281 18.3336 26.63 17.4922 28.3471 15.7903C29.7546 14.4039 31.1152 12.9698 32.4852 11.5452C33.2359 12.3387 33.9865 13.1323 34.7935 13.859C36.6983 15.5608 38.8753 15.9815 41.2305 14.9011C43.5857 13.8303 44.6179 11.8416 44.8525 9.38437C44.6929 6.71683 43.5951 4.71856 41.3056 3.63816ZM9.36459 9.57559C8.69837 10.2353 8.08846 10.962 7.37532 11.5834C6.4276 12.4248 5.32975 12.5682 4.18498 12.0137C3.07774 11.4687 2.56166 10.503 2.48659 9.37481C2.53351 7.93109 3.14343 6.9463 4.31635 6.43C5.43297 5.94238 6.52144 6.10492 7.43162 6.95586C8.09784 7.56777 8.71714 8.26573 9.35521 8.90632C9.59918 9.13578 9.63671 9.31745 9.36459 9.57559ZM30.205 9.57559C28.882 10.9141 27.6058 12.3005 26.2734 13.6199C25.1193 14.7577 23.7118 15.3218 22.1072 15.3027C20.4463 15.3314 19.0107 14.729 17.8284 13.553C16.5335 12.2527 15.2855 10.9141 14 9.61384C13.7279 9.34613 13.7372 9.18359 13.9906 8.92544C15.3136 7.59645 16.5992 6.21009 17.941 4.90022C20.2211 2.65337 23.9182 2.63424 26.2171 4.87154C27.5777 6.19097 28.8632 7.59645 30.1957 8.95412C30.4302 9.19315 30.4584 9.32701 30.205 9.57559ZM39.9919 12.0137C38.8377 12.5682 37.7399 12.4248 36.8015 11.5834C36.0884 10.962 35.4785 10.2353 34.8029 9.57559C34.5401 9.31745 34.5777 9.13578 34.8217 8.90632C35.4597 8.26573 36.079 7.56777 36.7452 6.95586C37.6554 6.10492 38.7439 5.94238 39.8605 6.43C41.0334 6.9463 41.6434 7.93109 41.6903 9.37481C41.6152 10.503 41.0991 11.4687 39.9919 12.0137Z" fill="black"/>
</svg>
