<svg width="1170" height="770" viewBox="0 0 1170 770" fill="none" xmlns="http://www.w3.org/2000/svg">
<g filter="url(#filter0_bd)">
<rect x="100" y="20" width="970" height="570" fill="white" fill-opacity="0.3" shape-rendering="crispEdges"/>
</g>
<rect x="122" y="42" width="925" height="525" fill="#232323"/>
<path d="M528.096 355.802L530.72 344.602H528.112L526.32 353.242H526.288L524.112 344.602H520.752L518.736 353.242H518.704L516.912 344.602H514.32L516.944 355.802H520.496L522.496 347.146H522.528L524.528 355.802H528.096ZM541.246 355.802L537.31 344.602H534.11L530.174 355.802H532.654L533.454 353.386H537.95L538.766 355.802H541.246ZM535.662 346.73H535.742L537.262 351.29H534.142L535.662 346.73ZM549.003 346.842V344.602H540.363V346.842H543.467V355.802H545.867V346.842H549.003ZM554.636 344.41C551.484 344.41 549.404 347.178 549.404 350.33C549.404 352.906 550.78 355.994 554.508 355.994C556.972 355.994 558.652 354.57 559.34 352.57L557.372 351.034H557.26C556.732 352.842 555.868 353.722 554.556 353.722C552.684 353.722 551.804 352.042 551.804 350.25C551.804 348.218 552.924 346.65 554.636 346.65C555.916 346.65 556.62 347.53 557.18 348.906H557.292L558.94 347.178C558.316 345.85 556.956 344.41 554.636 344.41ZM569.614 355.802V344.602H567.214V349.034H562.942V344.602H560.542V355.802H562.942V351.194H567.214V355.802H569.614ZM582.581 346.842V344.602H573.941V346.842H577.045V355.802H579.445V346.842H582.581ZM592.926 355.802V344.602H590.526V349.034H586.254V344.602H583.854V355.802H586.254V351.194H590.526V355.802H592.926ZM602.655 346.842V344.602H595.167V355.802H602.655V353.562H597.567V351.242H602.655V349.162H597.567V346.842H602.655ZM613.933 355.802L617.581 344.602H614.941L612.253 353.386H612.221L609.533 344.602H606.893L610.525 355.802H613.933ZM621.176 355.802V344.602H618.776V355.802H621.176ZM623.417 344.602V355.802H627.705C630.921 355.802 632.873 354.09 632.873 350.266C632.873 346.378 630.841 344.602 627.705 344.602H623.417ZM625.817 346.842H627.993C629.641 346.842 630.473 348.154 630.473 350.202C630.473 352.394 629.529 353.562 627.993 353.562H625.817V346.842ZM642.046 346.842V344.602H634.558V355.802H642.046V353.562H636.958V351.242H642.046V349.162H636.958V346.842H642.046ZM648.668 344.41C645.596 344.41 643.404 347.066 643.404 350.33C643.404 353.066 644.956 355.994 648.668 355.994C652.38 355.994 653.932 353.066 653.932 350.33C653.932 347.066 651.74 344.41 648.668 344.41ZM648.668 346.618C650.508 346.618 651.532 348.282 651.532 350.25C651.532 352.186 650.556 353.722 648.668 353.722C646.78 353.722 645.804 352.17 645.804 350.25C645.804 348.298 646.828 346.618 648.668 346.618Z" fill="white"/>
<g filter="url(#filter1_d)">
<path d="M615.5 279.702C615.957 279.965 616.336 280.344 616.6 280.8C616.864 281.257 617.003 281.775 617.003 282.302C617.003 282.829 616.864 283.347 616.6 283.804C616.336 284.26 615.957 284.639 615.5 284.902L566.5 313.202C566.044 313.465 565.526 313.604 564.999 313.604C564.473 313.604 563.955 313.465 563.499 313.201C563.043 312.938 562.664 312.559 562.401 312.103C562.138 311.646 561.999 311.129 562 310.602V254.002C561.999 253.475 562.138 252.958 562.401 252.501C562.664 252.045 563.043 251.666 563.499 251.402C563.955 251.139 564.473 251 564.999 251C565.526 251 566.044 251.139 566.5 251.402L615.5 279.702Z" fill="white"/>
</g>
<defs>
<filter id="filter0_bd" x="0" y="-20" width="1170" height="790" filterUnits="userSpaceOnUse" color-interpolation-filters="sRGB">
<feFlood flood-opacity="0" result="BackgroundImageFix"/>
<feGaussianBlur in="BackgroundImage" stdDeviation="20"/>
<feComposite in2="SourceAlpha" operator="in" result="effect1_backgroundBlur"/>
<feColorMatrix in="SourceAlpha" type="matrix" values="0 0 0 0 0 0 0 0 0 0 0 0 0 0 0 0 0 0 127 0" result="hardAlpha"/>
<feOffset dy="80"/>
<feGaussianBlur stdDeviation="50"/>
<feComposite in2="hardAlpha" operator="out"/>
<feColorMatrix type="matrix" values="0 0 0 0 0 0 0 0 0 0 0 0 0 0 0 0 0 0 0.05 0"/>
<feBlend mode="normal" in2="effect1_backgroundBlur" result="effect2_dropShadow"/>
<feBlend mode="normal" in="SourceGraphic" in2="effect2_dropShadow" result="shape"/>
</filter>
<filter id="filter1_d" x="532" y="221" width="115.003" height="122.604" filterUnits="userSpaceOnUse" color-interpolation-filters="sRGB">
<feFlood flood-opacity="0" result="BackgroundImageFix"/>
<feColorMatrix in="SourceAlpha" type="matrix" values="0 0 0 0 0 0 0 0 0 0 0 0 0 0 0 0 0 0 127 0" result="hardAlpha"/>
<feOffset/>
<feGaussianBlur stdDeviation="15"/>
<feColorMatrix type="matrix" values="0 0 0 0 0 0 0 0 0 0 0 0 0 0 0 0 0 0 0.8 0"/>
<feBlend mode="normal" in2="BackgroundImageFix" result="effect1_dropShadow"/>
<feBlend mode="normal" in="SourceGraphic" in2="effect1_dropShadow" result="shape"/>
</filter>
</defs>
</svg>
