<svg width="370" height="530" viewBox="0 0 370 530" fill="none" xmlns="http://www.w3.org/2000/svg">
<mask id="mask0" style="mask-type:alpha" maskUnits="userSpaceOnUse" x="0" y="0" width="370" height="530">
<rect width="370" height="530" fill="white" fill-opacity="0.75"/>
</mask>
<g mask="url(#mask0)">
<g opacity="0.5">
<path fill-rule="evenodd" clip-rule="evenodd" d="M193.432 626.124C203.778 630.597 214.009 635.106 223.121 640.307C249.949 655.619 276.636 668.605 307.063 673.65C338.306 678.83 368.684 676.153 399.693 669.585C410.584 667.278 422.273 665.879 434.031 664.489L434.646 664.416C446.207 663.05 457.824 661.676 468.835 659.444C491.253 654.898 511.085 646.805 522.755 628.04C534.274 609.517 533.161 588.262 527.419 566.379C524.548 555.439 520.525 544.358 516.357 533.398C515.483 531.1 514.603 528.807 513.726 526.521C510.421 517.914 507.159 509.418 504.444 501.176C492.596 465.209 478.716 428.944 449.302 405.269C421.315 382.743 384.351 374.865 348.374 375.526C319.712 376.052 294.642 389.857 269.423 403.744C266.363 405.429 263.3 407.116 260.229 408.78C232.07 424.036 205.483 439.841 184.766 464.183C179.327 470.573 173.231 477.014 167.045 483.551C165.562 485.118 164.073 486.691 162.588 488.27C154.9 496.439 147.278 504.776 140.774 513.39C127.764 530.621 119.276 548.901 123.667 569.073C128.089 589.393 143.788 602.004 163.007 612.142C171.857 616.81 181.435 620.945 190.981 625.066C191.799 625.418 192.616 625.771 193.432 626.124ZM162.71 612.705C143.446 602.544 127.529 589.815 123.044 569.208C118.593 548.761 127.218 530.287 140.266 513.006C146.791 504.362 154.435 496.003 162.124 487.833C163.612 486.251 165.103 484.676 166.587 483.107C172.773 476.571 178.854 470.146 184.28 463.77C205.081 439.33 231.762 423.478 259.925 408.22C262.993 406.558 266.055 404.871 269.117 403.185C294.316 389.306 319.532 375.418 348.362 374.889C384.427 374.226 421.558 382.12 449.702 404.773C479.278 428.58 493.204 465.02 505.049 500.977C507.759 509.202 511.014 517.68 514.318 526.286C515.196 528.573 516.077 530.869 516.953 533.172C521.121 544.134 525.155 555.242 528.035 566.217C533.793 588.162 534.954 609.631 523.296 628.376C511.485 647.368 491.433 655.512 468.962 660.068C457.924 662.306 446.285 663.682 434.732 665.047L434.106 665.122C422.342 666.512 410.683 667.908 399.825 670.208C368.768 676.787 338.306 679.476 306.959 674.279C276.417 669.215 249.651 656.183 222.805 640.86C213.729 635.679 203.528 631.183 193.179 626.709C192.362 626.356 191.543 626.002 190.724 625.649C181.183 621.53 171.582 617.386 162.71 612.705Z" fill="url(#paint0_linear)"/>
<path fill-rule="evenodd" clip-rule="evenodd" d="M288.728 515.275C293.794 517.46 298.812 519.667 303.282 522.215C316.413 529.7 329.459 536.037 344.334 538.487C359.612 541.003 374.474 539.678 389.658 536.445C395.003 535.307 400.738 534.615 406.498 533.927L406.796 533.892C412.463 533.215 418.149 532.537 423.539 531.438C434.511 529.202 444.176 525.238 449.867 516.095C455.486 507.069 454.964 496.71 452.167 486.007C450.769 480.658 448.807 475.238 446.771 469.871C446.345 468.746 445.915 467.624 445.487 466.505C443.872 462.29 442.277 458.123 440.95 454.083C435.164 436.464 428.396 418.749 414.04 407.199C400.382 396.209 382.319 392.374 364.715 392.717C350.716 392.99 338.463 399.746 326.094 406.567C324.595 407.394 323.093 408.222 321.587 409.039C307.784 416.529 294.773 424.276 284.631 436.189C281.96 439.326 278.967 442.489 275.932 445.696C275.205 446.464 274.475 447.235 273.747 448.009C269.977 452.015 266.243 456.099 263.058 460.315C256.684 468.752 252.55 477.664 254.675 487.475C256.815 497.356 264.443 503.495 273.842 508.446C278.169 510.725 282.853 512.743 287.529 514.758C287.929 514.93 288.329 515.102 288.728 515.275ZM273.545 509.01C264.101 504.036 256.254 497.777 254.052 487.61C251.868 477.524 256.138 468.418 262.549 459.931C265.757 455.685 269.511 451.58 273.283 447.572C274.014 446.795 274.746 446.022 275.475 445.252C278.508 442.047 281.487 438.899 284.146 435.776C294.371 423.765 307.476 415.971 321.283 408.479C322.786 407.663 324.287 406.835 325.789 406.007C338.137 399.195 350.535 392.356 364.703 392.08C382.394 391.735 400.624 395.586 414.44 406.702C428.959 418.384 435.773 436.275 441.555 453.884C442.877 457.909 444.465 462.056 446.079 466.27C446.508 467.391 446.939 468.516 447.367 469.645C449.403 475.014 451.376 480.462 452.783 485.846C455.597 496.611 456.165 507.184 450.408 516.432C444.575 525.801 434.691 529.815 423.666 532.063C418.251 533.167 412.542 533.848 406.883 534.523L406.573 534.56C400.808 535.248 395.103 535.938 389.79 537.069C374.559 540.312 359.612 541.649 344.231 539.116C329.241 536.647 316.115 530.264 302.966 522.769C298.531 520.241 293.544 518.047 288.476 515.86C288.075 515.687 287.674 515.514 287.273 515.341C282.602 513.329 277.895 511.301 273.545 509.01Z" fill="url(#paint1_linear)"/>
<path fill-rule="evenodd" clip-rule="evenodd" d="M202.095 616.047C211.961 620.312 221.719 624.611 230.408 629.571C255.991 644.172 281.438 656.553 310.451 661.363C340.243 666.301 369.21 663.746 398.781 657.481C409.168 655.28 420.315 653.946 431.528 652.619L432.113 652.55C443.139 651.246 454.217 649.936 464.717 647.807C486.094 643.471 505.002 635.753 516.129 617.863C527.112 600.203 526.052 579.939 520.577 559.072C517.841 548.641 514.005 538.074 510.031 527.623C509.198 525.431 508.359 523.245 507.522 521.066C504.371 512.857 501.261 504.754 498.672 496.895C487.375 462.596 474.141 428.017 446.096 405.445C419.412 383.967 384.166 376.456 349.859 377.088C322.53 377.592 298.625 390.756 274.575 404.001C271.656 405.608 268.736 407.216 265.807 408.803C238.953 423.354 213.6 438.426 193.844 461.638C188.657 467.732 182.844 473.874 176.945 480.108C175.53 481.603 174.11 483.103 172.693 484.609C165.361 492.4 158.092 500.351 151.891 508.564C139.484 524.996 131.391 542.424 135.576 561.655C139.792 581.026 154.756 593.048 173.083 602.715C181.521 607.165 190.654 611.108 199.758 615.037C200.537 615.374 201.317 615.71 202.095 616.047ZM172.786 603.278C154.415 593.589 139.231 581.447 134.954 561.79C130.709 542.285 138.937 524.663 151.382 508.18C157.606 499.937 164.896 491.965 172.229 484.173C173.649 482.664 175.071 481.161 176.486 479.665C182.385 473.432 188.184 467.305 193.359 461.225C213.198 437.915 238.645 422.795 265.503 408.243C268.429 406.658 271.349 405.049 274.269 403.441C298.3 390.205 322.35 376.958 349.847 376.451C384.242 375.818 419.654 383.344 446.496 404.948C474.704 427.652 487.983 462.406 499.277 496.695C501.861 504.539 504.964 512.623 508.114 520.829C508.951 523.01 509.792 525.2 510.627 527.396C514.601 537.85 518.448 548.444 521.194 558.91C526.684 579.839 527.791 600.317 516.67 618.199C505.402 636.317 486.274 644.085 464.844 648.431C454.317 650.566 443.217 651.879 432.2 653.181L431.603 653.252C420.384 654.579 409.266 655.911 398.913 658.104C369.294 664.38 340.242 666.946 310.347 661.991C281.219 657.163 255.693 644.735 230.092 630.124C221.438 625.185 211.711 620.898 201.842 616.632C201.063 616.295 200.282 615.958 199.501 615.621C190.403 611.693 181.247 607.741 172.786 603.278Z" fill="url(#paint2_linear)"/>
<path fill-rule="evenodd" clip-rule="evenodd" d="M210.759 605.97C220.145 610.027 229.428 614.117 237.696 618.836C262.034 632.725 286.24 644.502 313.84 649.075C342.18 653.771 369.737 651.34 397.869 645.378C407.751 643.283 418.357 642.013 429.025 640.75L429.582 640.684C440.072 639.443 450.61 638.197 460.6 636.17C480.936 632.045 498.92 624.702 509.503 607.686C519.949 590.89 518.943 571.616 513.737 551.766C511.134 541.843 507.485 531.791 503.705 521.848C502.913 519.763 502.115 517.683 501.319 515.61C498.322 507.801 495.363 500.092 492.9 492.614C482.154 459.983 469.567 427.091 442.891 405.62C417.509 385.191 383.982 378.049 351.345 378.651C325.349 379.132 302.61 391.655 279.727 404.258C276.95 405.787 274.172 407.317 271.385 408.827C245.836 422.671 221.717 437.011 202.923 459.093C197.988 464.892 192.456 470.737 186.843 476.668C185.497 478.09 184.147 479.517 182.799 480.95C175.823 488.362 168.908 495.926 163.008 503.74C151.204 519.372 143.508 535.949 147.486 554.237C151.494 572.66 165.725 584.093 183.159 593.288C191.186 597.522 199.875 601.272 208.535 605.01C209.277 605.33 210.018 605.65 210.759 605.97ZM182.862 593.852C165.384 584.634 150.934 573.081 146.864 554.373C142.825 535.809 150.658 519.038 162.499 503.356C168.422 495.512 175.358 487.927 182.334 480.513C183.686 479.077 185.039 477.648 186.386 476.224C191.998 470.294 197.515 464.465 202.438 458.68C221.316 436.5 245.528 422.113 271.081 408.267C273.865 406.759 276.643 405.228 279.421 403.698C302.284 391.104 325.169 378.498 351.333 378.014C384.057 377.41 417.752 384.569 443.29 405.124C470.13 426.726 482.762 459.794 493.505 492.414C495.963 499.876 498.914 507.566 501.911 515.373C502.707 517.449 503.507 519.532 504.301 521.621C508.082 531.567 511.741 541.646 514.353 551.604C519.576 571.516 520.628 591.004 510.044 608.023C499.32 625.265 481.116 632.658 460.727 636.795C450.711 638.826 440.15 640.076 429.669 641.316L429.1 641.383C418.427 642.646 407.85 643.914 398.001 646.001C369.821 651.973 342.18 654.417 313.736 649.704C286.022 645.112 261.736 633.289 237.38 619.389C229.147 614.691 219.895 610.613 210.506 606.555C209.764 606.234 209.022 605.914 208.279 605.593C199.623 601.857 190.912 598.098 182.862 593.852Z" fill="url(#paint3_linear)"/>
<path fill-rule="evenodd" clip-rule="evenodd" d="M219.422 595.892C228.328 599.742 237.137 603.623 244.983 608.1C268.076 621.278 291.042 632.45 317.228 636.788C344.117 641.241 370.263 638.933 396.956 633.274C406.335 631.286 416.399 630.079 426.522 628.881L427.05 628.818C437.004 627.64 447.003 626.457 456.482 624.533C475.778 620.617 492.837 613.65 502.876 597.509C512.786 581.576 511.834 563.293 506.895 544.459C504.426 535.044 500.965 525.507 497.379 516.073C496.627 514.094 495.87 512.121 495.115 510.153C492.271 502.744 489.464 495.428 487.128 488.332C476.933 457.37 464.992 426.164 439.685 405.796C415.606 386.415 383.797 379.64 352.83 380.214C328.167 380.671 306.593 392.554 284.879 404.514C282.244 405.965 279.607 407.418 276.963 408.851C252.719 421.989 229.835 435.596 212.002 456.548C207.318 462.051 202.068 467.598 196.741 473.227C195.464 474.576 194.183 475.93 192.904 477.289C186.285 484.323 179.723 491.5 174.124 498.915C162.924 513.748 155.623 529.472 159.396 546.819C163.196 564.292 176.693 575.138 193.235 583.861C200.851 587.878 209.094 591.435 217.312 594.981C218.016 595.285 218.719 595.589 219.422 595.892ZM192.937 584.425C176.352 575.678 162.636 564.713 158.773 546.954C154.941 529.333 162.378 513.414 173.616 498.531C179.237 491.087 185.819 483.888 192.44 476.853C193.722 475.49 195.005 474.134 196.284 472.783C201.61 467.155 206.845 461.624 211.516 456.135C229.433 435.085 252.411 421.431 276.659 408.29C279.3 406.859 281.937 405.407 284.573 403.954C306.267 392.003 327.987 380.037 352.818 379.577C383.872 379.001 415.848 385.793 440.085 405.299C465.555 425.799 477.541 457.18 487.733 488.133C490.064 495.213 492.864 502.509 495.707 509.917C496.462 511.886 497.221 513.863 497.975 515.846C501.562 525.283 505.034 534.848 507.512 544.298C512.467 563.193 513.466 581.691 503.418 597.846C493.237 614.214 475.958 621.231 456.609 625.158C447.104 627.086 437.082 628.273 427.137 629.45L426.597 629.514C416.469 630.713 406.434 631.916 397.088 633.897C370.347 639.566 344.116 641.887 317.124 637.416C290.824 633.06 267.778 621.841 244.667 608.653C236.856 604.196 228.078 600.328 219.169 596.477C218.465 596.173 217.761 595.869 217.056 595.565C208.843 592.021 200.577 588.453 192.937 584.425Z" fill="url(#paint4_linear)"/>
<path fill-rule="evenodd" clip-rule="evenodd" d="M228.085 585.815C236.511 589.456 244.847 593.128 252.27 597.364C274.118 609.83 295.844 620.398 320.616 624.5C346.053 628.711 370.789 626.526 396.044 621.17C404.918 619.288 414.442 618.146 424.019 617.012L424.518 616.952C433.936 615.837 443.397 614.716 452.364 612.896C470.619 609.19 486.754 602.598 496.25 587.332C505.624 572.263 504.725 554.97 500.054 537.153C497.719 528.246 494.445 519.223 491.053 510.297C490.342 508.426 489.626 506.559 488.911 504.698C486.222 497.687 483.566 490.765 481.355 484.051C471.711 454.757 460.417 425.237 436.479 405.971C413.703 387.639 383.612 381.232 354.316 381.777C330.986 382.211 310.577 393.453 290.031 404.77C287.538 406.144 285.043 407.518 282.54 408.874C259.602 421.306 237.952 434.181 221.08 454.003C216.648 459.21 211.68 464.459 206.64 469.785C205.432 471.062 204.219 472.343 203.009 473.629C196.746 480.284 190.538 487.075 185.241 494.089C174.644 508.123 167.739 522.996 171.306 539.401C174.898 555.925 187.662 566.182 203.31 574.434C210.515 578.233 218.314 581.598 226.089 584.953C226.755 585.241 227.42 585.528 228.085 585.815ZM203.013 574.998C187.321 566.723 174.338 556.346 170.683 539.536C167.057 522.857 174.097 507.789 184.732 493.705C190.051 486.661 196.281 479.849 202.545 473.192C203.758 471.903 204.973 470.62 206.183 469.341C211.222 464.017 216.175 458.783 220.595 453.59C237.55 433.67 259.294 420.748 282.237 408.314C284.736 406.959 287.23 405.585 289.725 404.211C310.251 392.902 330.806 381.577 354.304 381.14C383.687 380.593 413.945 387.017 436.879 405.474C460.98 424.872 472.32 454.567 481.96 483.852C484.165 490.55 486.814 497.453 489.503 504.461C490.218 506.324 490.936 508.195 491.649 510.071C495.042 518.999 498.326 528.049 500.671 536.991C505.358 554.87 506.303 572.377 496.791 587.669C487.154 603.162 470.799 609.804 452.491 613.52C443.497 615.346 434.014 616.469 424.605 617.584L424.094 617.644C414.511 618.78 405.017 619.919 396.176 621.794C370.873 627.159 346.053 629.357 320.512 625.128C295.626 621.008 273.82 610.394 251.955 597.918C244.566 593.701 236.261 590.042 227.832 586.4C227.166 586.112 226.5 585.825 225.833 585.537C218.062 582.184 210.241 578.809 203.013 574.998Z" fill="url(#paint5_linear)"/>
<path fill-rule="evenodd" clip-rule="evenodd" d="M236.749 575.738C244.695 579.171 252.556 582.634 259.558 586.629C280.16 598.383 300.646 608.347 324.005 612.212C347.991 616.182 371.316 614.119 395.132 609.067C403.502 607.291 412.484 606.213 421.516 605.143L421.987 605.087C430.869 604.034 439.79 602.977 448.246 601.259C465.461 597.763 480.672 591.547 489.624 577.156C498.461 562.95 497.617 546.648 493.213 529.846C491.012 521.448 487.926 512.94 484.727 504.522C484.057 502.757 483.381 500.996 482.708 499.241C480.172 492.63 477.667 486.102 475.583 479.77C466.491 452.144 455.843 424.31 433.274 406.146C411.8 388.864 383.428 382.823 355.802 383.34C333.805 383.751 314.561 394.352 295.183 405.027C292.832 406.322 290.479 407.619 288.119 408.898C266.485 420.624 246.069 432.766 230.159 451.458C225.979 456.37 221.293 461.321 216.539 466.344C215.4 467.548 214.256 468.756 213.115 469.969C207.208 476.246 201.353 482.65 196.358 489.265C186.364 502.499 179.855 516.52 183.216 531.983C186.601 547.558 198.631 557.227 213.387 565.007C220.18 568.589 227.534 571.762 234.866 574.926C235.494 575.196 236.122 575.467 236.749 575.738ZM213.089 565.571C198.29 557.768 186.04 547.979 182.593 532.118C179.173 516.381 185.818 502.165 195.849 488.881C200.867 482.236 206.742 475.811 212.651 469.533C213.795 468.316 214.941 467.106 216.082 465.9C220.834 460.878 225.505 455.943 229.674 451.045C245.668 432.255 266.178 420.066 287.815 408.338C290.172 407.06 292.524 405.764 294.877 404.468C314.235 393.801 333.624 383.117 355.79 382.703C383.503 382.185 412.042 388.241 433.673 405.65C456.406 423.945 467.099 451.954 476.189 479.571C478.267 485.887 480.764 492.396 483.3 499.005C483.974 500.762 484.651 502.526 485.323 504.296C488.522 512.716 491.619 521.251 493.83 529.685C498.25 546.548 499.141 563.064 490.165 577.492C481.072 592.111 465.641 598.377 448.373 601.884C439.891 603.606 430.947 604.666 422.074 605.718L421.591 605.775C412.554 606.847 403.601 607.922 395.264 609.69C371.4 614.753 347.99 616.828 323.901 612.841C300.428 608.957 279.862 598.947 259.242 587.182C252.275 583.207 244.445 579.757 236.496 576.323C235.868 576.052 235.239 575.78 234.61 575.509C227.283 572.348 219.906 569.165 213.089 565.571Z" fill="url(#paint6_linear)"/>
<path fill-rule="evenodd" clip-rule="evenodd" d="M245.412 565.661C252.878 568.886 260.265 572.139 266.845 575.893C286.202 586.936 305.448 596.295 327.393 599.925C349.927 603.652 371.842 601.712 394.219 596.963C402.085 595.294 410.526 594.28 419.013 593.273L419.455 593.221C427.801 592.231 436.183 591.237 444.128 589.622C460.303 586.336 474.589 580.495 482.998 566.979C491.299 553.636 490.508 538.325 486.372 522.54C484.305 514.65 481.406 506.656 478.401 498.747C477.771 497.089 477.137 495.434 476.504 493.785C474.122 487.573 471.769 481.439 469.811 475.489C461.269 449.53 451.268 423.383 430.068 406.322C409.897 390.088 383.243 384.415 357.287 384.903C336.623 385.291 318.544 395.251 300.335 405.284C298.125 406.501 295.914 407.719 293.697 408.921C273.368 419.941 254.187 431.351 239.238 448.913C235.309 453.529 230.906 458.182 226.438 462.902C225.367 464.034 224.293 465.169 223.22 466.309C217.669 472.207 212.168 478.225 207.474 484.44C198.084 496.874 191.971 510.044 195.126 524.565C198.303 539.191 209.599 548.272 223.462 555.58C229.845 558.945 236.754 561.926 243.644 564.898C244.233 565.152 244.823 565.406 245.412 565.661ZM223.165 556.144C209.258 548.812 197.743 539.612 194.503 524.7C191.288 509.905 197.538 496.54 206.966 484.056C211.682 477.811 217.204 471.772 222.756 465.872C223.832 464.729 224.909 463.591 225.981 462.458C230.447 457.739 234.836 453.102 238.753 448.5C253.785 430.84 273.06 419.383 293.393 408.361C295.607 407.161 297.818 405.942 300.029 404.724C318.218 394.7 336.443 384.657 357.275 384.265C383.318 383.776 410.139 389.465 430.468 405.825C451.831 423.018 461.878 449.341 470.416 475.29C472.369 481.224 474.714 487.339 477.096 493.55C477.73 495.2 478.365 496.858 478.997 498.521C482.002 506.432 484.912 514.453 486.989 522.378C491.141 538.225 491.978 553.751 483.539 567.315C474.989 581.059 460.483 586.95 444.255 590.247C436.284 591.866 427.879 592.863 419.542 593.852L419.088 593.906C410.596 594.913 402.185 595.924 394.351 597.587C371.926 602.346 349.927 604.298 327.289 600.553C305.23 596.905 285.904 587.5 266.529 576.447C259.984 572.713 252.628 569.472 245.159 566.246C244.569 565.991 243.978 565.736 243.387 565.481C236.502 562.511 229.571 559.521 223.165 556.144Z" fill="url(#paint7_linear)"/>
<path fill-rule="evenodd" clip-rule="evenodd" d="M254.075 555.584C261.061 558.601 267.975 561.645 274.133 565.158C292.244 575.489 310.251 584.244 330.781 587.637C351.864 591.123 372.369 589.306 393.307 584.86C400.669 583.297 408.569 582.347 416.51 581.404L416.923 581.355C424.734 580.428 432.577 579.497 440.011 577.986C455.144 574.91 468.507 569.444 476.372 556.802C484.136 544.323 483.399 530.002 479.531 515.234C477.598 507.852 474.886 500.373 472.075 492.972C471.486 491.421 470.893 489.872 470.301 488.329C468.072 482.517 465.871 476.776 464.039 471.208C456.049 446.917 446.694 422.456 426.863 406.497C407.994 391.313 383.058 386.007 358.773 386.466C339.442 386.831 322.528 396.15 305.487 405.541C303.42 406.68 301.35 407.82 299.275 408.945C280.252 419.259 262.304 429.936 248.317 446.368C244.639 450.689 240.518 455.044 236.337 459.461C235.335 460.52 234.329 461.583 233.326 462.649C228.131 468.169 222.983 473.8 218.591 479.615C209.804 491.25 204.087 503.568 207.036 517.147C210.006 530.824 220.568 539.317 233.538 546.154C239.51 549.302 245.974 552.089 252.421 554.87C252.972 555.108 253.524 555.346 254.075 555.584ZM233.241 546.717C220.227 539.857 209.445 531.245 206.413 517.282C203.405 503.429 209.258 490.916 218.083 479.231C222.497 473.386 227.665 467.734 232.862 462.212C233.868 461.143 234.876 460.078 235.879 459.018C240.059 454.601 244.166 450.262 247.832 445.955C261.902 429.425 279.944 418.701 298.971 408.385C301.043 407.261 303.112 406.121 305.181 404.981C322.202 395.599 339.261 386.197 358.761 385.829C383.133 385.368 408.236 390.69 427.262 406.001C447.257 422.092 456.657 446.728 464.644 471.009C466.471 476.561 468.665 482.283 470.893 488.093C471.485 489.638 472.08 491.19 472.671 492.746C475.483 500.149 478.205 507.655 480.148 515.072C484.032 529.902 484.816 544.438 476.913 557.139C468.906 570.008 455.325 575.523 440.138 578.61C432.678 580.127 424.812 581.06 417.011 581.987L416.585 582.037C408.639 582.981 400.768 583.927 393.439 585.483C372.453 589.939 351.864 591.768 330.678 588.266C310.033 584.853 291.947 576.053 273.817 565.711C267.694 562.219 260.811 559.187 253.823 556.169C253.271 555.93 252.718 555.692 252.165 555.453C245.722 552.675 239.236 549.877 233.241 546.717Z" fill="url(#paint8_linear)"/>
<path fill-rule="evenodd" clip-rule="evenodd" d="M262.738 545.506C269.244 548.316 275.684 551.151 281.42 554.422C298.286 564.042 315.053 572.192 334.17 575.35C353.801 578.593 372.895 576.899 392.395 572.756C399.253 571.299 406.611 570.414 414.007 569.535L414.391 569.489C421.666 568.625 428.97 567.757 435.893 566.349C449.986 563.483 462.424 558.392 469.746 546.625C476.974 535.01 476.29 521.679 472.69 507.927C470.891 501.053 468.366 494.089 465.749 487.197C465.201 485.752 464.648 484.311 464.097 482.874C462.022 477.46 459.972 472.113 458.267 466.926C450.827 444.304 442.119 421.529 423.657 406.673C406.091 392.537 382.873 387.599 360.258 388.028C342.26 388.37 326.511 397.049 310.639 405.797C308.713 406.858 306.786 407.92 304.853 408.969C287.134 418.576 270.421 428.521 257.395 443.823C253.969 447.848 250.13 451.905 246.235 456.02C245.302 457.006 244.366 457.996 243.431 458.989C238.592 464.131 233.798 469.374 229.708 474.79C221.524 485.626 216.202 497.092 218.945 509.729C221.708 522.457 231.537 530.361 243.614 536.727C249.174 539.657 255.193 542.253 261.198 544.842C261.711 545.063 262.225 545.285 262.738 545.506ZM243.317 537.29C231.195 530.902 221.147 522.878 218.323 509.864C215.52 496.953 220.978 485.292 229.199 474.406C233.312 468.961 238.127 463.695 242.967 458.552C243.905 457.556 244.843 456.564 245.778 455.576C249.671 451.463 253.496 447.421 256.91 443.41C270.019 428.01 286.827 418.019 304.549 408.408C306.479 407.362 308.406 406.3 310.333 405.237C326.186 396.498 342.08 387.736 360.246 387.391C382.948 386.96 406.333 391.914 424.056 406.176C442.682 421.164 451.436 444.115 458.872 466.727C460.572 471.898 462.615 477.226 464.689 482.638C465.241 484.077 465.795 485.521 466.345 486.97C468.963 493.865 471.498 500.856 473.307 507.766C476.923 521.58 477.653 535.124 470.287 546.962C462.823 558.956 450.166 564.096 436.02 566.973C429.071 568.387 421.744 569.257 414.478 570.121L414.082 570.168C406.681 571.047 399.352 571.93 392.527 573.379C372.979 577.532 353.801 579.239 334.066 575.978C314.835 572.802 297.989 564.606 281.104 554.976C275.403 551.724 268.994 548.902 262.486 546.091C261.972 545.869 261.457 545.647 260.941 545.425C254.942 542.838 248.9 540.233 243.317 537.29Z" fill="url(#paint9_linear)"/>
<path fill-rule="evenodd" clip-rule="evenodd" d="M271.402 535.429C277.428 538.031 283.394 540.656 288.708 543.687C304.329 552.595 319.855 560.14 337.558 563.062C355.738 566.063 373.422 564.492 391.483 560.653C397.836 559.302 404.654 558.481 411.504 557.666L411.86 557.624C418.598 556.822 425.363 556.017 431.775 554.712C444.828 552.056 456.341 547.341 463.12 536.449C469.811 525.696 469.182 513.356 465.849 500.621C464.184 494.255 461.847 487.805 459.424 481.422C458.916 480.084 458.404 478.749 457.894 477.418C455.972 472.403 454.074 467.45 452.495 462.645C445.607 441.691 437.545 420.603 420.452 406.848C404.188 393.761 382.689 389.19 361.744 389.591C345.079 389.91 330.496 397.949 315.791 406.054C314.007 407.037 312.222 408.021 310.431 408.992C294.018 417.894 278.539 427.106 266.474 441.279C263.3 445.008 259.742 448.767 256.135 452.579C255.27 453.492 254.403 454.409 253.537 455.329C249.054 460.092 244.613 464.949 240.825 469.965C233.244 480.002 228.319 490.616 230.855 502.311C233.41 514.09 242.506 521.406 253.69 527.3C258.84 530.014 264.414 532.417 269.975 534.814C270.451 535.019 270.927 535.224 271.402 535.429ZM253.393 527.864C242.164 521.947 232.85 514.511 230.233 502.447C227.636 490.477 232.698 479.667 240.316 469.581C244.127 464.536 248.589 459.657 253.073 454.892C253.942 453.969 254.811 453.05 255.677 452.135C259.284 448.324 262.827 444.581 265.989 440.866C278.137 426.595 293.71 417.336 310.127 408.432C311.915 407.463 313.7 406.479 315.485 405.494C330.17 397.397 344.898 389.276 361.732 388.954C382.764 388.552 404.43 393.138 420.851 406.352C438.108 420.238 446.215 441.502 453.1 462.446C454.674 467.235 456.565 472.169 458.486 477.182C458.997 478.514 459.51 479.853 460.019 481.195C462.443 487.582 464.791 494.058 466.466 500.459C469.815 513.257 470.49 525.811 463.661 536.785C456.741 547.905 445.008 552.669 431.902 555.337C425.464 556.647 418.677 557.454 411.947 558.255L411.579 558.299C404.724 559.114 397.936 559.933 391.615 561.276C373.506 565.126 355.738 566.709 337.454 563.691C319.637 560.75 304.031 553.159 288.392 544.24C283.113 541.23 277.178 538.617 271.15 536.014C270.673 535.809 270.196 535.603 269.719 535.397C264.162 533.002 258.566 530.59 253.393 527.864Z" fill="url(#paint10_linear)"/>
<path fill-rule="evenodd" clip-rule="evenodd" d="M280.065 525.352C285.611 527.746 291.103 530.162 295.995 532.951C310.371 541.148 324.657 548.089 340.946 550.775C357.675 553.533 373.948 552.085 390.57 548.549C396.42 547.305 402.696 546.548 409.001 545.797L409.328 545.758C415.531 545.019 421.756 544.277 427.657 543.075C439.669 540.629 450.258 536.289 456.494 526.272C462.649 516.383 462.073 505.033 459.008 493.314C457.476 487.457 455.327 481.522 453.097 475.646C452.63 474.415 452.159 473.186 451.69 471.961C449.922 467.346 448.175 462.787 446.722 458.364C440.385 439.078 432.97 419.676 417.246 407.023C402.285 394.985 382.504 390.782 363.229 391.154C347.897 391.45 334.479 398.847 320.943 406.31C319.301 407.215 317.658 408.121 316.009 409.016C300.901 417.212 286.656 425.691 275.553 438.734C272.63 442.167 269.354 445.628 266.033 449.137C265.237 449.978 264.439 450.822 263.642 451.669C259.515 456.054 255.428 460.524 251.941 465.14C244.964 474.377 240.434 484.14 242.765 494.893C245.112 505.723 253.474 512.451 263.766 517.873C268.504 520.369 273.633 522.58 278.752 524.786C279.19 524.975 279.628 525.163 280.065 525.352ZM263.469 518.437C253.133 512.991 244.552 506.144 242.142 495.028C239.752 484 244.418 474.043 251.433 464.756C254.942 460.11 259.05 455.618 263.178 451.232C263.978 450.382 264.778 449.536 265.576 448.694C268.896 445.185 272.157 441.74 275.068 438.321C286.254 425.18 300.593 416.654 315.705 408.456C317.351 407.563 318.993 406.657 320.637 405.751C334.153 398.296 347.717 390.816 363.217 390.517C382.579 390.143 402.527 394.362 417.645 406.527C433.533 419.311 440.994 438.889 447.328 458.165C448.775 462.572 450.515 467.112 452.282 471.725C452.752 472.952 453.224 474.184 453.693 475.42C455.923 481.298 458.083 487.26 459.625 493.153C462.706 504.934 463.328 516.498 457.035 526.608C450.658 536.853 439.85 541.242 427.784 543.7C421.858 544.907 415.609 545.651 409.415 546.389L409.076 546.429C402.766 547.181 396.519 547.935 390.703 549.172C374.033 552.719 357.675 554.179 340.843 551.403C324.439 548.698 310.073 541.712 295.679 533.505C290.822 530.735 285.361 528.332 279.813 525.937C279.374 525.748 278.935 525.559 278.496 525.369C273.382 523.165 268.23 520.945 263.469 518.437Z" fill="url(#paint11_linear)"/>
</g>
</g>
<defs>
<linearGradient id="paint0_linear" x1="225.74" y1="679.922" x2="471.118" y2="424.77" gradientUnits="userSpaceOnUse">
<stop stop-color="#D5D5D5"/>
<stop offset="1" stop-color="white" stop-opacity="0"/>
</linearGradient>
<linearGradient id="paint1_linear" x1="304.35" y1="541.882" x2="424.932" y2="416.498" gradientUnits="userSpaceOnUse">
<stop stop-color="#D5D5D5"/>
<stop offset="1" stop-color="white" stop-opacity="0"/>
</linearGradient>
<linearGradient id="paint2_linear" x1="232.886" y1="667.373" x2="466.919" y2="424.018" gradientUnits="userSpaceOnUse">
<stop stop-color="#D5D5D5"/>
<stop offset="1" stop-color="white" stop-opacity="0"/>
</linearGradient>
<linearGradient id="paint3_linear" x1="240.033" y1="654.824" x2="462.72" y2="423.266" gradientUnits="userSpaceOnUse">
<stop stop-color="#D5D5D5"/>
<stop offset="1" stop-color="white" stop-opacity="0"/>
</linearGradient>
<linearGradient id="paint4_linear" x1="247.179" y1="642.275" x2="458.522" y2="422.514" gradientUnits="userSpaceOnUse">
<stop stop-color="#D5D5D5"/>
<stop offset="1" stop-color="white" stop-opacity="0"/>
</linearGradient>
<linearGradient id="paint5_linear" x1="254.325" y1="629.725" x2="454.323" y2="421.762" gradientUnits="userSpaceOnUse">
<stop stop-color="#D5D5D5"/>
<stop offset="1" stop-color="white" stop-opacity="0"/>
</linearGradient>
<linearGradient id="paint6_linear" x1="261.472" y1="617.176" x2="450.124" y2="421.01" gradientUnits="userSpaceOnUse">
<stop stop-color="#D5D5D5"/>
<stop offset="1" stop-color="white" stop-opacity="0"/>
</linearGradient>
<linearGradient id="paint7_linear" x1="268.618" y1="604.627" x2="445.925" y2="420.258" gradientUnits="userSpaceOnUse">
<stop stop-color="#D5D5D5"/>
<stop offset="1" stop-color="white" stop-opacity="0"/>
</linearGradient>
<linearGradient id="paint8_linear" x1="275.765" y1="592.079" x2="441.727" y2="419.506" gradientUnits="userSpaceOnUse">
<stop stop-color="#D5D5D5"/>
<stop offset="1" stop-color="white" stop-opacity="0"/>
</linearGradient>
<linearGradient id="paint9_linear" x1="282.911" y1="579.529" x2="437.528" y2="418.754" gradientUnits="userSpaceOnUse">
<stop stop-color="#D5D5D5"/>
<stop offset="1" stop-color="white" stop-opacity="0"/>
</linearGradient>
<linearGradient id="paint10_linear" x1="290.058" y1="566.98" x2="433.33" y2="418.002" gradientUnits="userSpaceOnUse">
<stop stop-color="#D5D5D5"/>
<stop offset="1" stop-color="white" stop-opacity="0"/>
</linearGradient>
<linearGradient id="paint11_linear" x1="297.204" y1="554.431" x2="429.131" y2="417.25" gradientUnits="userSpaceOnUse">
<stop stop-color="#D5D5D5"/>
<stop offset="1" stop-color="white" stop-opacity="0"/>
</linearGradient>
</defs>
</svg>
